PathFileType	4	(X/Y/Z)	C:\Users\Basilio\Documents\Thesis Gigler\squatting_fais\c3dfiles\047\SLS_pre_back5\markers_experimental.trc
DataRate	CameraRate	NumFrames	NumMarkers	Units	OrigDataRate	OrigDataStartFrame	OrigNumFrames
200.000000	200.000000	4	62	mm	200.000000	1141	1304
Frame#	Time	FHD			LBHD			RBHD			C7			T10			CLAV			LSHO			LUUPA			LMUPA			LDUPA			LLEP			LMEP			LRAD			LUL			LRFIN			RSHO			RUPA1			RMUPA			RDUPA			RLEP			RMEP			RRAD			RUFIN			LASI			RASI			USACR			LSACR			RSACR			LTHI1			LTHI2			LTHI3			LTHI4			LLFC			LMFC			LTIB1			LTIB2			LTIB3			LTIB4			LLMAL			LMMAL			LMT1			LMT2			LMT5			RTHI			RTHI2			RTHI3			RTHI4			RLFC			RMFC			RTIB1			RTIB2			RTIB3			RTIB4			RLMAL			RMMAL			RHEE			RMT1			RMT2			RMT5			RUL			*60			*61			
		X1	Y1	Z1	X2	Y2	Z2	X3	Y3	Z3	X4	Y4	Z4	X5	Y5	Z5	X6	Y6	Z6	X7	Y7	Z7	X8	Y8	Z8	X9	Y9	Z9	X10	Y10	Z10	X11	Y11	Z11	X12	Y12	Z12	X13	Y13	Z13	X14	Y14	Z14	X15	Y15	Z15	X16	Y16	Z16	X17	Y17	Z17	X18	Y18	Z18	X19	Y19	Z19	X20	Y20	Z20	X21	Y21	Z21	X22	Y22	Z22	X23	Y23	Z23	X24	Y24	Z24	X25	Y25	Z25	X26	Y26	Z26	X27	Y27	Z27	X28	Y28	Z28	X29	Y29	Z29	X30	Y30	Z30	X31	Y31	Z31	X32	Y32	Z32	X33	Y33	Z33	X34	Y34	Z34	X35	Y35	Z35	X36	Y36	Z36	X37	Y37	Z37	X38	Y38	Z38	X39	Y39	Z39	X40	Y40	Z40	X41	Y41	Z41	X42	Y42	Z42	X43	Y43	Z43	X44	Y44	Z44	X45	Y45	Z45	X46	Y46	Z46	X47	Y47	Z47	X48	Y48	Z48	X49	Y49	Z49	X50	Y50	Z50	X51	Y51	Z51	X52	Y52	Z52	X53	Y53	Z53	X54	Y54	Z54	X55	Y55	Z55	X56	Y56	Z56	X57	Y57	Z57	X58	Y58	Z58	X59	Y59	Z59	X60	Y60	Z60	X61	Y61	Z61	X62	Y62	Z62	

1142	5.705	-202.2245025634766	1749.412719726563	-1109.751098632813	-374.4898376464844	1690.572509765625	-1135.328369140625	-351.2362976074219	1695.097290039063	-988.2069091796877	-375.9407348632813	1515.448852539063	-1059.343139648438	-371.8816223144532	1205.476684570313	-1021.461303710938	-228.1436920166016	1461.6435546875	-1096.2783203125	-320.1065368652344	1465.146850585938	-1245.705322265625	-273.5916442871094	1296.809814453125	-1334.434936523438	-229.8792724609376	1319.174438476563	-1340.597778320313	-214.8728942871094	1261.390380859375	-1348.640747070313	-145.4252166748047	1242.273193359375	-1360.299194335938	-153.3284759521485	1201.633911132813	-1277.840209960938	0.9190731048583987	1393.57568359375	-1214.736083984375	52.17527008056642	1334.485961914063	-1213.145141601563	88.79442596435548	1418.255126953125	-1220.310180664063	-248.7897491455079	1496.059692382813	-931.6560668945315	-142.2252502441407	1351.517822265625	-843.1364746093752	-103.8600158691407	1373.292724609375	-866.6116333007815	-80.88405609130861	1318.983520507813	-852.2610473632815	-10.38192558288574	1303.986572265625	-879.3889770507815	-47.86985397338868	1236.7001953125	-928.8262329101565	nan	nan	nan	77.58328247070314	1434.5224609375	-1130.067749023438	-201.3555450439454	986.7760009765627	-1123.446044921875	-171.1112213134766	1014.147399902344	-897.7161865234377	-370.5551757812501	1071.058837890625	-997.887634277344	-376.9100341796876	1036.55517578125	-1021.923645019531	-368.5889892578126	1042.820434570313	-964.8057861328127	-293.0993041992188	833.7199707031252	-1173.821044921875	-261.6877136230469	754.7162475585939	-1174.342041015625	-213.9564514160157	756.6339111328126	-1166.308837890625	-292.0651855468751	702.4404907226564	-1163.286254882813	-321.7912292480469	532.1359863281251	-1119.294555664063	-281.3118286132813	524.1203002929689	-1002.241333007813	-288.6498718261719	346.4269714355469	-1026.3916015625	-305.6063842773438	300.0097961425782	-1098.517578125	-285.7096252441407	298.2210388183594	-1055.93603515625	-298.5122070312501	220.8022613525391	-1022.753051757813	-354.0359497070313	123.8774795532227	-1060.04345703125	-327.6264343261719	140.8026428222657	-976.6059570312502	-210.0661315917969	64.9122772216797	-994.3278808593752	-209.9717254638672	60.66162109375001	-1039.421020507813	-258.9615173339844	47.56362533569337	-1082.912963867188	-211.0729370117188	841.1750488281252	-771.5005493164065	-156.9357452392578	802.4104003906252	-761.1430664062501	-128.6451873779297	809.9024047851565	-774.1360473632815	-157.7007904052735	720.0554809570314	-744.5523071289064	-119.9828033447266	593.9266967773439	-744.9274291992189	-105.8697662353516	554.4102783203126	-870.3836669921877	-197.6256408691407	498.4328002929689	-746.4041137695314	-299.0447082519532	534.1315307617189	-725.0040283203126	-280.9146423339844	490.7730407714845	-724.9829711914064	-320.4208374023438	455.6246948242189	-754.2756347656251	-485.0879516601564	464.0226440429689	-734.1651611328126	-455.479461669922	423.9680175781251	-812.8045043945315	-506.9645996093751	507.3272094726564	-799.9727783203127	-527.1846313476564	300.9382629394532	-792.1203613281252	-531.3017578125001	299.7657775878907	-746.6651000976564	-568.0438842773439	354.7625732421876	-705.4487304687501	110.3372116088867	1350.403930664063	-1107.685668945313	nan	nan	nan	nan	nan	nan	
1143	5.71	-202.1987762451172	1749.432006835938	-1109.622436523438	-374.5669860839844	1690.563232421875	-1135.180419921875	-351.2713623046876	1695.064697265625	-988.0253906250002	-375.9616394042969	1515.406005859375	-1059.069946289063	-371.9047546386719	1205.463500976563	-1021.314575195313	-228.0123596191407	1461.705444335938	-1096.167602539063	-320.3066711425782	1465.115112304688	-1245.527465820313	-273.6286926269532	1296.844360351563	-1334.223266601563	-229.8137359619141	1319.228881835938	-1340.409057617188	-214.888412475586	1261.453857421875	-1348.446533203125	-145.5188140869141	1242.322143554688	-1360.135131835938	-153.2806396484375	1201.657836914063	-1277.677978515625	0.8998295068740847	1393.60546875	-1214.591552734375	52.34668731689455	1334.554565429688	-1213.10986328125	88.84327697753908	1418.698852539063	-1220.141479492188	-248.7387084960938	1496.141967773438	-931.4537353515627	-142.1355895996094	1351.542236328125	-843.0035400390627	-104.0459823608399	1372.844970703125	-866.3355712890627	-80.72971343994142	1319.05322265625	-852.182312011719	-10.31787872314453	1304.005859375	-879.2424316406252	-47.78995895385743	1236.76708984375	-928.7121582031252	nan	nan	nan	77.71813201904298	1434.699829101563	-1129.97265625	-201.2705688476563	986.769470214844	-1123.369384765625	-170.936264038086	1014.056701660156	-897.6329345703127	-370.4879150390626	1070.998046875	-997.8047485351565	-376.7951965332032	1036.4921875	-1021.872375488281	-368.5402221679688	1042.757446289063	-964.7375488281252	-292.9591979980469	833.6456298828127	-1173.727294921875	-261.4857788085938	754.7530517578126	-1174.305419921875	-213.8535919189454	756.6406860351564	-1166.230834960938	-291.9579772949219	702.4472045898439	-1163.234985351563	-321.7895812988282	532.0872802734376	-1119.257934570313	-281.8033752441407	523.9687500000001	-1002.3359375	-288.6454467773438	346.4312133789063	-1026.371215820313	-305.6695861816407	300.0639953613282	-1098.466430664063	-285.7463378906251	298.2284240722657	-1055.889770507813	-298.4747924804688	220.9074707031251	-1022.757568359375	-354.0309753417969	123.925277709961	-1060.024780273438	-327.6591796875001	140.7566375732422	-976.5880126953127	-209.9748535156251	64.90323638916017	-994.400329589844	-209.7913208007813	60.74354934692384	-1039.468383789063	-258.9718627929688	47.56332015991212	-1082.90478515625	-210.9556121826172	841.0481567382815	-771.3299560546877	-156.8802032470703	802.2930908203127	-761.2627563476564	-128.4271240234375	809.5879516601565	-774.552185058594	-157.7449951171875	719.9323730468751	-744.5617065429689	-120.139144897461	593.7618408203126	-744.9473876953126	-106.0256423950196	554.2280273437501	-870.4564208984377	-197.8563537597657	498.2132263183595	-746.4457397460939	-299.2133483886719	534.0439453125001	-725.0889892578126	-281.2571411132813	490.626678466797	-724.9565429687501	-320.7853393554688	455.5453186035157	-754.3170776367189	-485.1839904785157	464.058807373047	-734.0927734375001	-455.7080078125001	424.1519775390626	-812.893249511719	-507.219696044922	507.5765686035157	-799.9719238281252	-527.3627929687501	301.3216552734376	-792.304870605469	-531.8915405273439	299.9488220214844	-746.5893554687501	-568.3402099609376	354.9888000488282	-705.7203979492189	110.2737350463867	1350.382690429688	-1107.416870117188	nan	nan	nan	nan	nan	nan	
1144	5.715	-202.1476135253907	1749.763061523438	-1109.455932617188	-374.3850097656251	1690.53466796875	-1135.060546875	-351.3397216796876	1695.024658203125	-987.8181152343752	-376.0196228027344	1515.406616210938	-1058.860717773438	-371.9349060058594	1205.431762695313	-1021.167602539063	-228.0692749023438	1461.769897460938	-1096.072875976563	-320.2169189453126	1465.198974609375	-1245.435668945313	-273.5787048339844	1296.880493164063	-1334.057739257813	-229.9383697509766	1319.35302734375	-1340.185668945313	-214.9013214111329	1261.512329101563	-1348.26416015625	-145.5425109863282	1242.41064453125	-1359.929931640625	-153.0267791748047	1201.470825195313	-1276.418090820313	0.9466017484664919	1393.646484375	-1214.438110351563	52.72710418701173	1334.61767578125	-1213.415771484375	88.75950622558595	1418.356811523438	-1220.086303710938	-248.6308135986329	1496.161254882813	-931.3099365234377	-142.0575103759766	1351.568969726563	-842.9434814453127	-103.911865234375	1372.871826171875	-866.127868652344	-80.69651794433595	1319.113403320313	-852.045593261719	-10.22537326812744	1304.087768554688	-879.0681762695315	-47.70599365234376	1236.873046875	-928.491149902344	nan	nan	nan	77.76987457275392	1434.717407226563	-1129.92822265625	-201.1602630615235	986.7841796875002	-1123.307250976563	-170.8253631591797	1014.01318359375	-897.6669921875002	-370.3838806152344	1070.976806640625	-997.7561035156252	-376.7411499023438	1036.476806640625	-1021.80224609375	-368.4102478027344	1042.664916992188	-964.6807861328127	-292.8593750000001	833.6843872070315	-1173.635620117188	-261.4373474121094	754.7420654296876	-1174.249389648438	-213.7875518798829	756.5868530273439	-1166.134521484375	-291.8384704589844	702.4456787109376	-1163.107055664063	-321.7963256835938	532.0947265625001	-1119.200439453125	-281.8378906250001	523.9495239257814	-1002.227661132813	-288.6380615234376	346.4447021484376	-1026.331909179688	-305.5717163085938	300.1728210449219	-1098.476440429688	-285.9322509765626	298.4284057617188	-1055.798706054688	-298.5398559570313	220.8130187988282	-1022.616882324219	-354.0072326660157	123.9385757446289	-1060.001586914063	-327.6226196289063	140.7754058837891	-976.5649414062502	-209.9640655517579	64.94617462158205	-994.4253540039065	-208.3293762207032	61.16826629638673	-1039.178955078125	-258.9127197265626	47.59727859497071	-1082.966674804688	-210.8618927001954	840.9351806640627	-771.344177246094	-156.7906799316407	802.0260009765627	-761.2985839843751	-128.3201751708985	809.5000610351565	-774.6365966796877	-157.9717864990235	719.7843017578126	-744.5048217773439	-120.3028335571289	593.5491943359376	-745.0486450195314	-106.2463150024414	554.1439208984376	-870.5462646484377	-198.1641387939454	498.077362060547	-746.3828735351564	-299.3471374511719	534.0285644531251	-725.2377319335939	-281.5066223144532	490.6684875488282	-725.0556030273439	-321.0125732421876	455.4595336914064	-754.2543945312501	-485.3393554687501	464.2173461914064	-734.2373046875001	-455.9107971191407	424.2717285156251	-812.942810058594	-507.260467529297	507.515350341797	-800.1265258789065	-528.4732055664064	300.7898559570313	-792.0936279296877	-532.5488891601564	300.1628112792969	-746.4204711914064	-568.9013061523439	355.3503417968751	-705.8511962890626	110.3253402709961	1350.4140625	-1107.358276367188	nan	nan	nan	nan	nan	nan	
1145	5.72	-201.9651184082032	1749.468872070313	-1109.19287109375	-374.3338012695313	1690.479248046875	-1134.943115234375	-351.4915161132813	1694.952514648438	-987.6127929687502	-376.0605468750001	1515.423461914063	-1058.6689453125	-371.9321899414063	1205.428955078125	-1021.015075683594	-227.9317321777344	1461.77685546875	-1095.86572265625	-320.2742004394532	1465.154418945313	-1245.22265625	-273.7359619140626	1296.994018554688	-1333.790771484375	-230.0113983154297	1319.37841796875	-1340.028442382813	-214.9268646240235	1261.50732421875	-1348.102905273438	-145.4756469726563	1242.473754882813	-1359.735107421875	-153.013168334961	1201.544555664063	-1276.243774414063	1.013118028640747	1393.419067382813	-1214.1845703125	52.40448379516603	1334.7099609375	-1212.916870117188	88.77342224121095	1418.368530273438	-1219.91943359375	-248.554916381836	1496.218017578125	-931.144226074219	-141.8862915039063	1351.697021484375	-842.7036743164065	-103.9736633300782	1372.615844726563	-865.9556274414065	-80.62715911865236	1319.120849609375	-851.888610839844	-10.26748275756836	1304.089477539063	-878.6990356445315	-47.62193298339844	1236.939575195313	-928.2798461914065	nan	nan	nan	77.78005981445314	1434.726684570313	-1129.770629882813	-199.5814056396485	987.1131591796877	-1124.726806640625	-170.7513732910157	1014.001892089844	-897.5240478515627	-370.3077697753907	1070.931396484375	-997.725280761719	-376.6560974121094	1036.473510742188	-1021.759094238281	-368.3104858398438	1042.640625	-964.632507324219	-292.7467651367188	833.725524902344	-1173.553833007813	-261.2231140136719	754.7183227539064	-1174.1162109375	-213.5970458984376	756.5265502929689	-1166.0107421875	-291.7297363281251	702.4193725585939	-1163.041381835938	-321.8169555664063	532.1036987304689	-1119.122436523438	-281.7391357421876	523.9603881835939	-1002.239074707031	-288.6267089843751	346.4710998535157	-1026.326904296875	-305.5369873046876	300.1787414550782	-1098.430541992188	-285.7129516601563	298.2454528808594	-1055.801147460938	-298.4938354492188	220.9220733642579	-1022.67578125	-354.0522460937501	123.9819107055664	-1060.001831054688	-327.6283569335938	140.7656555175782	-976.5299072265627	-209.9763641357422	64.9208221435547	-994.3867797851565	-209.8651733398438	60.68252563476564	-1039.494995117188	-258.8087768554688	47.64130783081055	-1083.000854492188	-210.8645782470704	840.8072509765627	-771.4024658203127	-156.8020324707032	801.9192504882815	-761.2441406250001	-128.3156433105469	809.3393554687502	-774.5640869140627	-157.9601135253907	719.7061157226564	-744.5208129882814	-120.4621124267578	593.3682861328126	-745.1129760742189	-106.3692932128907	554.0145263671876	-870.6040039062502	-198.4872131347657	497.8983154296876	-746.3213500976564	-299.5398864746094	534.0345458984376	-725.2668457031251	-281.7072448730469	490.6645812988282	-725.1351318359376	-321.2808227539063	455.5335998535157	-754.3056030273439	-485.6253356933595	464.412811279297	-734.4129638671876	-456.1900939941407	424.355194091797	-813.0852050781252	-507.3536682128907	507.7981872558595	-800.2174072265627	-528.5672607421876	301.2804260253907	-792.6439208984377	-533.0039672851564	300.5292663574219	-747.1463012695314	-569.1825561523439	355.4989318847657	-706.1129150390626	110.3540344238282	1350.492797851563	-1107.228393554688	nan	nan	nan	nan	nan	nan	
